<?xml version="1.0" encoding="UTF-8"?>
<svg id="Layer_1" xmlns="http://www.w3.org/2000/svg" version="1.1" viewBox="0 0 1341 1341">
  <!-- Generator: Adobe Illustrator 30.3.0, SVG Export Plug-In . SVG Version: 2.1.3 Build 182)  -->
  <defs>
    <style>
      .st0 {
        fill: #fff;
      }
    </style>
  </defs>
  <path class="st0" d="M1209.07,1341.08H134.38c-73.38,0-133.09-59.7-133.09-133.09V133C1.29,59.62,60.99-.08,134.38-.08h1074.7c73.38,0,133.09,59.7,133.09,133.09v1075c0,73.38-59.7,133.09-133.09,133.09v-.02h-.01ZM134.38,19.92c-62.36,0-113.09,50.73-113.09,113.09v1075c0,62.36,50.73,113.09,113.09,113.09h1074.7c62.36,0,113.09-50.73,113.09-113.09V133c0-62.36-50.73-113.09-113.09-113.09H134.38Z"/>
  <g id="Layer_1-2">
    <g>
      <path class="st0" d="M341.66,1098.37l14.04-22.9c3.81-6.24,7.63-10.5,11.44-12.75,3.81-2.25,8.59-3.39,14.31-3.39,5.37,0,11.54,1.48,18.47,4.43l-39.52,59.32,37.96,59.84c-5.2,2.08-10.67,3.12-16.39,3.12-6.93,0-12.35-1.04-16.26-3.12-3.91-2.08-7.42-5.64-10.54-10.67l-15.6-24.46-21.32,35.65h-37.19l39.52-61.67-36.4-58.8c7.8-2.6,14.91-3.91,21.32-3.91,5.2,0,9.57,1.14,13.14,3.39,3.54,2.25,6.72,5.99,9.5,11.19l13.52,24.71v.02ZM476.62,1125.96l-33.28,57.51h-39l51.49-86.91-45.76-82.75c8.67-3.81,16.22-5.72,22.63-5.72,9.53,0,16.47,4.26,20.8,12.75l25.23,47.09,25.75-44.24c3.47-5.89,6.97-9.98,10.54-12.23,3.54-2.25,8.11-3.39,13.66-3.39,6.07,0,12.39,1.73,18.99,5.2l-48.37,81.96,50.72,87.18c-7.28,2.6-14.14,3.91-20.55,3.91-6.07,0-11.06-1.17-14.95-3.51-3.91-2.35-7.59-6.45-11.06-12.37l-26.79-44.49h-.04ZM571.87,1164.4c-12.69-12.71-19.05-28.04-19.05-46s6.36-33.23,19.05-45.94c12.69-12.75,28.03-19.13,45.98-19.13s33.21,6.38,45.9,19.13c12.73,12.71,19.11,28.01,19.11,45.94h-32.51c0-8.94-3.2-16.58-9.59-22.94-6.36-6.39-13.98-9.59-22.92-9.59s-16.64,3.2-22.98,9.59c-6.36,6.36-9.52,14-9.52,22.94s3.18,16.64,9.52,23c6.36,6.36,14,9.53,22.98,9.53v32.53c-17.95,0-33.26-6.36-45.98-19.05l.02-.02ZM701.02,1183.45v-65.05c0-17.91,6.36-33.23,19.05-45.94,12.69-12.75,28.03-19.13,45.98-19.13s33.21,6.38,45.9,19.13c12.73,12.71,19.11,28.01,19.11,45.94v65.05h-32.51v-65.05c0-8.94-3.2-16.58-9.59-22.94-6.36-6.39-13.98-9.59-22.92-9.59s-16.64,3.2-22.98,9.59c-6.36,6.36-9.52,14-9.52,22.94v65.05h-32.51ZM868.26,1164.4c-12.69-12.71-19.05-28.04-19.05-46v-130.09h32.51v65.05h32.51v32.53h-32.51v32.53c0,8.98,3.18,16.64,9.52,23,6.36,6.36,14,9.53,22.98,9.53v32.53c-17.95,0-33.26-6.36-45.98-19.05l.02-.04ZM951.43,1164.4c-12.69-12.71-19.05-28.04-19.05-46s6.36-33.23,19.05-45.94c12.69-12.75,28.03-19.13,45.98-19.13s33.21,6.38,45.9,19.13c12.73,12.71,19.11,28.01,19.11,45.94v65.05h-32.51v-65.05c0-8.94-3.2-16.58-9.59-22.94-6.36-6.39-13.98-9.59-22.92-9.59s-16.64,3.2-22.98,9.59c-6.36,6.36-9.52,14-9.52,22.94s3.18,16.64,9.52,23c6.36,6.36,14,9.53,22.98,9.53v32.53c-17.95,0-33.26-6.36-45.98-19.05l.02-.02Z"/>
      <path class="st0" d="M849.23,191.49c24.5-24.52,56.63-36.79,88.74-36.79s64.24,12.27,88.76,36.79c49,49.04,49,128.53,0,177.59l-88.76,88.79-88.74,88.81c49-49.06,49-128.55,0-177.59-49-49.06-128.49-49.06-177.49,0l88.74-88.81,88.76-88.79h0ZM316.73,901.85c24.52,24.52,56.63,36.79,88.76,36.79s64.24-12.27,88.74-36.79c24.5-24.52,36.75-56.65,36.75-88.79s-12.25-64.27-36.75-88.81c-24.5-24.5-56.61-36.77-88.74-36.77s-64.24,12.27-88.76,36.77c-49,49.06-49,128.55,0,177.59v.02ZM1026.73,724.26l-177.49-177.57c-49,49.04-73.52,113.31-73.52,177.59s24.52,128.53,73.52,177.57c24.5,24.52,56.61,36.79,88.74,36.79s64.24-12.27,88.76-36.79c24.52-24.52,36.75-56.65,36.75-88.79s-12.23-64.27-36.75-88.81v.02ZM494.25,442.62c64.24,0,128.47-24.5,177.49-73.54l-177.49-177.59c-49-49.06-128.49-49.06-177.49,0-24.52,24.5-36.77,56.65-36.77,88.79s12.23,64.27,36.75,88.81c49.02,49.04,113.26,73.54,177.49,73.54l.02-.02Z"/>
    </g>
  </g>
</svg>