<?xml version="1.0" encoding="UTF-8"?>
<svg id="Layer_2" xmlns="http://www.w3.org/2000/svg" version="1.1" xmlns:xlink="http://www.w3.org/1999/xlink" viewBox="0 0 406.78 407">
  <!-- Generator: Adobe Illustrator 30.2.1, SVG Export Plug-In . SVG Version: 2.1.1 Build 1)  -->
  <defs>
    <style>
      .st0 {
        fill: url(#linear-gradient);
      }
    </style>
    <linearGradient id="linear-gradient" x1="4622.58" y1="323.15" x2="4991.28" y2="691.86" gradientTransform="translate(5010.32 -303.89) rotate(-180) scale(1 -1)" gradientUnits="userSpaceOnUse">
      <stop offset="0" stop-color="#3fe0ff"/>
      <stop offset="1" stop-color="#0988d3"/>
    </linearGradient>
  </defs>
  <g id="Layer_1-2">
    <path class="st0" d="M295.54,19.21C308.26,6.48,324.94.11,341.61.11s33.35,6.37,46.08,19.1c25.44,25.46,25.44,66.73,0,92.2l-46.08,46.1-46.07,46.11c25.44-25.47,25.44-66.74,0-92.2-25.44-25.47-66.71-25.47-92.15,0l46.07-46.11,46.08-46.1h0ZM19.08,388.01c12.73,12.73,29.4,19.1,46.08,19.1s33.35-6.37,46.07-19.1,19.08-29.41,19.08-46.1-6.36-33.37-19.08-46.11c-12.72-12.72-29.39-19.09-46.07-19.09s-33.35,6.37-46.08,19.09c-25.44,25.47-25.44,66.74,0,92.2h0ZM387.69,295.81l-92.15-92.19c-25.44,25.46-38.17,58.83-38.17,92.2s12.73,66.73,38.17,92.19c12.72,12.73,29.39,19.1,46.07,19.1s33.35-6.37,46.08-19.1,19.08-29.41,19.08-46.1-6.35-33.37-19.08-46.11h0ZM111.24,149.59c33.35,0,66.7-12.72,92.15-38.18L111.24,19.21c-25.44-25.47-66.71-25.47-92.15,0C6.36,31.93,0,48.62,0,65.31s6.35,33.37,19.08,46.11c25.45,25.46,58.8,38.18,92.15,38.18h0Z"/>
  </g>
</svg>